<?xml version="1.0" standalone="no"?><!DOCTYPE svg PUBLIC "-//W3C//DTD SVG 1.1//EN" "http://www.w3.org/Graphics/SVG/1.1/DTD/svg11.dtd"><svg t="1537170387055" class="icon" style="" viewBox="0 0 1025 1024" version="1.1" xmlns="http://www.w3.org/2000/svg" p-id="2347" xmlns:xlink="http://www.w3.org/1999/xlink" width="128.125" height="128"><defs><style type="text/css"></style></defs><path d="M404.871074 540.937053c-47.072085 0-90.050945 0-136.099724 0-19.442818 0-19.442818 22.512736 0 22.512736 46.048779 0 89.027639 0 136.099724 0C423.290586 563.449789 423.290586 540.937053 404.871074 540.937053z" p-id="2348"></path><path d="M632.04505 563.449789c0 0 78.794577 0 124.843356 0 19.442818 0 19.442818-22.512736 0-22.512736-46.048779 0-83.911108 0-124.843356 0C613.625539 540.937053 613.625539 563.449789 632.04505 563.449789z" p-id="2349"></path><path d="M106.094317 459.190237c-59.223846 3.634784-106.09434 50.345642-106.09434 107.463524 0 56.219419 45.39591 102.355179 103.289458 107.268072 45.554522 181.476191 209.750141 315.859831 405.357168 315.859831 195.472973 0 359.585705-134.210701 405.264047-315.505767 60.772109-2.059915 109.395526-49.442062 109.395526-107.622136 0-59.062164-50.115398-106.998943-112.173802-107.684558-42.491767-151.814638-168.58765-268.645506-325.500399-297.876248 11.735275-8.137331 22.614044-17.323551 32.259728-27.478841 19.066241-20.081361 30.596855-49.396014 9.227152-71.859631-14.407128-15.151072-40.795125-22.013363-60.950164-17.724687-23.909549 5.085832-15.659655 18.934235 2.694365 28.891004 7.477298 4.053316 14.414291 4.330632 7.629771-0.825808-22.25077-16.906042-14.784728-21.262256 8.547677-19.705807 15.721053 1.045819 32.720216 10.331299 38.039361 25.583678 8.001231 22.944572-17.787108 46.846958-32.751938 59.34255-7.586792 6.350638-35.259038 19.186991-41.029462 18.62008-13.374612-1.313925-26.931373-2.013867-40.652885-2.013867C316.869811 153.922648 155.281576 283.104823 106.094317 459.190237zM668.561732 326.006935c107.699907 0 195.014532 87.318718 195.014532 195.027835 0 100.391455-75.860758 183.03571-173.400259 193.794751 8.894577 22.326495 13.845333 46.64639 13.845333 72.133877 0 107.71321-87.312578 195.027835-195.025789 195.027835-107.708094 0-195.022719-87.314625-195.022719-195.027835 0-25.732058 5.02955-50.28015 14.08274-72.774467C232.988379 701.168384 159.729888 619.686604 159.729888 521.03477c0-107.709117 87.314625-195.027835 195.022719-195.027835 64.336284 0 121.389698 31.16786 156.898423 79.218226C547.176127 357.174795 604.226471 326.006935 668.561732 326.006935z" p-id="2350"></path><path d="M439.843587 679.815053c10.6782-13.060457-7.880481-31.849382-18.662035-18.667152-28.752858 35.155684-10.951423 111.14231 42.74964 104.793718 22.25077-2.628874 38.557154-18.59859 49.574069-38.089503 7.641027 15.316847 19.828604 27.620058 37.72623 32.022321 51.29834 12.642948 78.623685-43.562145 59.493999-84.835154-7.15291-15.433504-29.899984-2.013867-22.795169 13.319353 13.071713 28.216645-16.959254 63.632249-43.623543 38.812981-11.30037-10.517541-14.644535-30.650067-14.760169-45.473681-0.115634-14.534018-22.965038-18.459421-25.920346-3.510964-3.714602 18.73469-11.392468 37.94624-24.593118 51.934836C447.792629 763.230881 419.179965 705.089693 439.843587 679.815053z" p-id="2351"></path></svg>